# Wavefront Obj file
# 
# verts: 104 uv-s: 212
mtllib dragon health pack.mtl

g pCube1
#pivot 0.000000 0.000000 0.000000

v -10.000000 6.750000 30.000000
v 10.000000 6.750000 30.000000
v -30.000000 6.750000 10.000000
v -10.000000 13.787786 10.000000
v 10.000000 13.787786 10.000000
v 30.000000 6.750000 10.000000
v -30.000000 6.750000 -10.000000
v -10.000000 13.787786 -10.000000
v 10.000000 13.787786 -10.000000
v 30.000000 6.750000 -10.000000
v -10.000000 6.750000 -30.000000
v 10.000000 6.750000 -30.000000
v 7.500000 6.750000 30.000000
v -7.500000 6.750000 30.000000
v 7.500000 12.957941 12.358253
v -7.500000 12.957941 12.358253
v -7.500000 12.957941 -12.358253
v 7.500000 12.957941 -12.358253
v 7.500000 6.750000 -30.000000
v -7.500000 6.750000 -30.000000
v -27.641747 7.579844 7.500000
v -12.358253 12.957941 7.500000
v -12.358253 12.957941 -7.500000
v -27.641747 7.579844 -7.500000
v 12.358253 12.957941 7.500000
v 27.641747 7.579844 7.500000
v 27.641747 7.579844 -7.500000
v 12.358253 12.957941 -7.500000
v 7.500000 3.917130 26.000000
v -7.500000 3.917130 26.000000
v 7.500000 9.184735 11.030503
v -7.500000 9.184735 11.030503
v -26.313995 3.806639 7.500000
v -11.030503 9.184735 7.500000
v -11.030503 9.184735 -7.500000
v -26.313995 3.806639 -7.500000
v 11.030503 9.184735 7.500000
v 26.313995 3.806639 7.500000
v 26.313995 3.806639 -7.500000
v 11.030503 9.184735 -7.500000
v -7.500000 9.184735 -11.030503
v 7.500000 9.184735 -11.030503
v 7.500000 3.917130 -26.000000
v -7.500000 3.917130 -26.000000
v 10.000000 1.224702 30.000000
v 29.999998 1.224702 10.000000
v 7.500000 1.224702 -26.000000
v -7.500000 1.224702 -26.000000
v -30.000000 1.224702 10.000000
v -10.000000 1.224702 29.999998
v -7.500000 1.224702 29.999998
v 10.000000 1.224702 -30.000000
v 7.500000 1.224702 -29.999998
v -7.500000 1.224702 26.000000
v 7.500000 1.224702 26.000000
v 30.000000 1.224702 -10.000000
v -29.999998 1.224702 -10.000000
v -10.000000 1.224702 -30.000000
v 7.500000 1.224702 30.000000
v -7.500000 1.224702 -30.000000
v -10.000000 -4.300596 30.000000
v 10.000000 -4.300596 30.000000
v -30.000000 -4.300596 10.000000
v -10.000000 -11.338381 10.000000
v 10.000000 -11.338381 10.000000
v 30.000000 -4.300596 10.000000
v -30.000000 -4.300596 -10.000000
v -10.000000 -11.338381 -10.000000
v 10.000000 -11.338381 -10.000000
v 30.000000 -4.300596 -10.000000
v -10.000000 -4.300596 -30.000000
v 10.000000 -4.300596 -30.000000
v 7.500000 -4.300596 30.000000
v -7.500000 -4.300596 30.000000
v 7.500000 -10.508535 12.358253
v -7.500000 -10.508535 12.358253
v -7.500000 -10.508535 -12.358253
v 7.500000 -10.508535 -12.358253
v 7.500000 -4.300596 -30.000000
v -7.500000 -4.300596 -30.000000
v -27.641747 -5.130440 7.500000
v -12.358253 -10.508535 7.500000
v -12.358253 -10.508535 -7.500000
v -27.641747 -5.130440 -7.500000
v 12.358253 -10.508535 7.500000
v 27.641747 -5.130440 7.500000
v 27.641747 -5.130440 -7.500000
v 12.358253 -10.508535 -7.500000
v 7.500000 -1.467726 26.000000
v -7.500000 -1.467726 26.000000
v 7.500000 -6.735331 11.030503
v -7.500000 -6.735331 11.030503
v -26.313995 -1.357234 7.500000
v -11.030503 -6.735331 7.500000
v -11.030503 -6.735331 -7.500000
v -26.313995 -1.357234 -7.500000
v 11.030503 -6.735331 7.500000
v 26.313995 -1.357234 7.500000
v 26.313995 -1.357234 -7.500000
v 11.030503 -6.735331 -7.500000
v -7.500000 -6.735331 -11.030503
v 7.500000 -6.735331 -11.030503
v 7.500000 -1.467726 -26.000000
v -7.500000 -1.467726 -26.000000
# 104 positions

vt 0.108719 0.000000
vt 0.108719 0.108719
vt 0.000000 0.108719
vt 0.556267 0.125342
vt 0.637482 0.125342
vt 0.637482 0.207588
vt 0.556267 0.207588
vt 0.217438 0.000000
vt 0.326157 0.108719
vt 0.217438 0.108719
vt 0.505281 0.102365
vt 0.421945 0.102365
vt 0.421945 0.020574
vt 0.505281 0.020574
vt 0.217438 0.217438
vt 0.108719 0.217438
vt 0.676706 0.020574
vt 0.760042 0.020574
vt 0.760042 0.102365
vt 0.676706 0.102365
vt 0.000000 0.217438
vt 0.108719 0.326157
vt 0.886305 0.212669
vt 0.806350 0.212669
vt 0.806350 0.127680
vt 0.886305 0.127680
vt 0.326157 0.217438
vt 0.217438 0.326157
vt 0.203848 0.095900
vt 0.203848 0.000000
vt 0.122309 0.095900
vt 0.122309 0.000000
vt 0.203848 0.230257
vt 0.122309 0.230257
vt 0.203848 0.326157
vt 0.122309 0.326157
vt 0.095900 0.122309
vt 0.012819 0.122309
vt 0.095900 0.203848
vt 0.012819 0.203848
vt 0.313338 0.122309
vt 0.230257 0.122309
vt 0.313338 0.203848
vt 0.230257 0.203848
vt 0.657489 0.109118
vt 0.657489 0.207588
vt 0.637482 0.228515
vt 0.556267 0.228515
vt 0.533558 0.207588
vt 0.533558 0.125342
vt 0.505281 0.122939
vt 0.421945 0.122939
vt 0.401370 0.102365
vt 0.401371 0.020574
vt 0.421945 0.000000
vt 0.505281 0.000000
vt 0.525856 0.020574
vt 0.525855 0.102365
vt 0.676706 0.000000
vt 0.760042 0.000000
vt 0.780617 0.020574
vt 0.780617 0.102365
vt 0.760042 0.122939
vt 0.676706 0.122939
vt 0.656132 0.102365
vt 0.656132 0.020574
vt 0.886305 0.232613
vt 0.806350 0.232613
vt 0.785916 0.212669
vt 0.785916 0.119724
vt 0.908036 0.127680
vt 0.908035 0.212669
vt 0.365319 0.525307
vt 0.396943 0.525307
vt 0.396943 0.666524
vt 0.365319 0.666524
vt 0.381533 1.000000
vt 0.381533 0.932455
vt 0.396943 0.932455
vt 0.396943 1.000000
vt 0.365319 0.408087
vt 0.365319 0.266864
vt 0.396943 0.266864
vt 0.396943 0.408087
vt 0.396943 0.418266
vt 0.365319 0.418266
vt 0.365319 0.906575
vt 0.396943 0.906575
vt 0.396943 0.916755
vt 0.365319 0.916755
vt 0.396943 0.433979
vt 0.381533 0.433979
vt 0.396943 0.499422
vt 0.381533 0.499422
vt 0.396943 0.765356
vt 0.365319 0.765356
vt 0.396943 0.026875
vt 0.396943 0.168027
vt 0.365319 0.168027
vt 0.365319 0.026875
vt 0.396943 0.515128
vt 0.365319 0.515128
vt 0.396943 0.016586
vt 0.365319 0.016586
vt 0.396943 0.000000
vt 0.381533 0.000000
vt 0.108719 0.328560
vt 0.000000 0.437279
vt 0.108719 0.437279
vt 0.428886 0.125342
vt 0.428886 0.207588
vt 0.510101 0.207588
vt 0.510101 0.125342
vt 0.217438 0.328560
vt 0.217438 0.437279
vt 0.326157 0.437279
vt 0.632662 0.102365
vt 0.632662 0.020574
vt 0.549326 0.020574
vt 0.549326 0.102365
vt 0.108719 0.545998
vt 0.217438 0.545998
vt 0.804087 0.020574
vt 0.804087 0.102365
vt 0.887423 0.102365
vt 0.887423 0.020574
vt 0.000000 0.545998
vt 0.108719 0.654717
vt 0.761328 0.213605
vt 0.761328 0.128616
vt 0.681373 0.128616
vt 0.681373 0.213605
vt 0.217438 0.654717
vt 0.326157 0.545998
vt 0.203848 0.328560
vt 0.203848 0.424460
vt 0.122309 0.424460
vt 0.122309 0.328560
vt 0.122309 0.558818
vt 0.203848 0.558818
vt 0.203848 0.654717
vt 0.122309 0.654717
vt 0.012819 0.450869
vt 0.095900 0.450869
vt 0.095900 0.532408
vt 0.012819 0.532408
vt 0.230257 0.450869
vt 0.313338 0.450869
vt 0.313338 0.532408
vt 0.230257 0.532408
vt 0.530108 0.109118
vt 0.530108 0.207588
vt 0.510101 0.228515
vt 0.428886 0.228515
vt 0.406177 0.207588
vt 0.406177 0.125342
vt 0.632662 0.122939
vt 0.549326 0.122939
vt 0.528751 0.102365
vt 0.528752 0.020574
vt 0.549326 0.000000
vt 0.632662 0.000000
vt 0.653237 0.020574
vt 0.653236 0.102365
vt 0.804087 0.000000
vt 0.887423 0.000000
vt 0.907997 0.020574
vt 0.907997 0.102365
vt 0.887423 0.122939
vt 0.804087 0.122939
vt 0.783513 0.102365
vt 0.783513 0.020574
vt 0.761328 0.233549
vt 0.681373 0.233549
vt 0.660939 0.213605
vt 0.660939 0.120660
vt 0.783058 0.128616
vt 0.783058 0.213605
vt 0.329268 0.525307
vt 0.329268 0.666524
vt 0.360891 0.666524
vt 0.360891 0.525307
vt 0.345481 1.000000
vt 0.360891 1.000000
vt 0.360891 0.932455
vt 0.345481 0.932455
vt 0.329268 0.408087
vt 0.360891 0.408087
vt 0.360891 0.266864
vt 0.329268 0.266864
vt 0.329268 0.418266
vt 0.360891 0.418266
vt 0.329268 0.906575
vt 0.329268 0.916755
vt 0.360891 0.916755
vt 0.360891 0.906575
vt 0.345481 0.433979
vt 0.360891 0.433979
vt 0.345481 0.499422
vt 0.360891 0.499422
vt 0.360891 0.765356
vt 0.329268 0.765356
vt 0.360891 0.026875
vt 0.329268 0.026875
vt 0.329268 0.168027
vt 0.360891 0.168027
vt 0.360891 0.515128
vt 0.329268 0.515128
vt 0.360891 0.016586
vt 0.329268 0.016586
vt 0.360891 0.000000
vt 0.345481 0.000000
# 212 texture coordinates

vn -0.259842 0.910900 0.320536
vn -0.165522 0.972216 0.165522
vn -0.320419 0.910568 0.261149
vn 0.000000 0.943301 0.331938
vn 0.000000 0.943301 0.331938
vn 0.000000 0.943301 0.331938
vn 0.000000 0.943301 0.331938
vn 0.259842 0.910900 0.320536
vn 0.320419 0.910568 0.261149
vn 0.165522 0.972216 0.165522
vn -0.331938 0.943301 0.000000
vn -0.331938 0.943301 0.000000
vn -0.331938 0.943301 0.000000
vn -0.331938 0.943301 0.000000
vn 0.165522 0.972216 -0.165522
vn -0.165522 0.972216 -0.165522
vn 0.331938 0.943301 0.000000
vn 0.331938 0.943301 0.000000
vn 0.331938 0.943301 0.000000
vn 0.331938 0.943301 0.000000
vn -0.320419 0.910568 -0.261149
vn -0.259842 0.910900 -0.320536
vn 0.000000 0.943301 -0.331938
vn 0.000000 0.943301 -0.331938
vn 0.000000 0.943301 -0.331938
vn 0.000000 0.943301 -0.331938
vn 0.320419 0.910568 -0.261149
vn 0.259842 0.910900 -0.320536
vn -0.000000 0.943301 0.331938
vn -0.000000 0.943301 0.331938
vn 0.000000 0.943301 0.331938
vn 0.000000 0.943301 0.331938
vn -0.000000 0.943301 -0.331938
vn 0.000000 0.943301 -0.331938
vn -0.000000 0.943301 -0.331938
vn 0.000000 0.943301 -0.331938
vn -0.331938 0.943301 -0.000000
vn -0.331938 0.943301 -0.000000
vn -0.331938 0.943301 0.000000
vn -0.331938 0.943301 0.000000
vn 0.331938 0.943301 -0.000000
vn 0.331938 0.943301 -0.000000
vn 0.331938 0.943301 0.000000
vn 0.331938 0.943301 0.000000
vn -1.000000 0.000000 0.000000
vn -1.000000 0.000000 0.000000
vn -1.000000 0.000000 0.000000
vn -1.000000 0.000000 0.000000
vn 0.000000 -0.331938 0.943301
vn 0.000000 -0.331938 0.943301
vn 0.000000 -0.331938 0.943301
vn 0.000000 -0.331938 0.943301
vn 1.000000 0.000000 0.000000
vn 1.000000 0.000000 -0.000000
vn 1.000000 0.000000 -0.000000
vn 1.000000 0.000000 0.000000
vn 0.000000 0.000000 -1.000000
vn 0.000000 0.000000 -1.000000
vn 0.000000 0.000000 -1.000000
vn 0.000000 0.000000 -1.000000
vn -0.943301 -0.331938 0.000000
vn -0.943301 -0.331938 0.000000
vn -0.943301 -0.331938 0.000000
vn -0.943301 -0.331938 0.000000
vn 0.000000 0.000000 1.000000
vn 0.000000 0.000000 1.000000
vn 0.000000 0.000000 1.000000
vn 0.000000 0.000000 1.000000
vn 0.943301 0.331938 0.000000
vn 0.943301 0.331938 0.000000
vn 0.943301 0.331938 0.000000
vn 0.943301 0.331938 0.000000
vn 0.000000 0.000000 -1.000000
vn 0.000000 0.000000 -1.000000
vn 0.000000 0.000000 -1.000000
vn 0.000000 0.000000 -1.000000
vn -0.943301 0.331938 0.000000
vn -0.943301 0.331938 0.000000
vn -0.943301 0.331938 0.000000
vn -0.943301 0.331938 0.000000
vn 0.000000 0.000000 1.000000
vn 0.000000 0.000000 1.000000
vn 0.000000 0.000000 1.000000
vn 0.000000 0.000000 1.000000
vn 0.943301 -0.331938 0.000000
vn 0.943301 -0.331938 0.000000
vn 0.943301 -0.331938 0.000000
vn 0.943301 -0.331938 0.000000
vn 0.000000 -0.331938 -0.943301
vn 0.000000 -0.331938 -0.943301
vn 0.000000 -0.331938 -0.943301
vn 0.000000 -0.331938 -0.943301
vn -1.000000 0.000000 0.000000
vn -1.000000 0.000000 0.000000
vn -1.000000 0.000000 0.000000
vn -1.000000 0.000000 0.000000
vn 1.000000 0.000000 0.000000
vn 1.000000 0.000000 0.000000
vn 1.000000 0.000000 0.000000
vn 1.000000 0.000000 0.000000
vn 0.707107 -0.000000 0.707107
vn 0.707107 0.000000 0.707107
vn 0.707107 0.000000 0.707107
vn 0.707107 -0.000000 0.707107
vn 0.000000 0.000000 -1.000000
vn 0.000000 0.000000 -1.000000
vn 0.000000 0.000000 -1.000000
vn 0.000000 0.000000 -1.000000
vn -0.707107 -0.000000 0.707107
vn -0.707107 -0.000000 0.707107
vn -0.707107 0.000000 0.707107
vn -0.707107 0.000000 0.707107
vn 0.000000 -0.000000 1.000000
vn 0.000000 0.000000 1.000000
vn 0.000000 0.000000 1.000000
vn 0.000000 -0.000000 1.000000
vn -0.000000 -0.000000 -1.000000
vn -0.000000 0.000000 -1.000000
vn -0.000000 0.000000 -1.000000
vn -0.000000 -0.000000 -1.000000
vn 1.000000 -0.000000 -0.000000
vn 1.000000 0.000000 -0.000000
vn -1.000000 -0.000000 0.000000
vn -1.000000 0.000000 0.000000
vn 0.000000 0.000000 1.000000
vn 0.000000 0.000000 1.000000
vn 0.000000 0.000000 1.000000
vn 0.000000 0.000000 1.000000
vn 0.707107 0.000000 -0.707107
vn 0.707107 0.000000 -0.707107
vn 0.707107 0.000000 -0.707107
vn 0.707107 0.000000 -0.707107
vn 1.000000 0.000000 0.000000
vn 1.000000 0.000000 0.000000
vn 1.000000 -0.000000 0.000000
vn 1.000000 -0.000000 0.000000
vn -0.707107 0.000000 -0.707107
vn -0.707107 0.000000 -0.707107
vn -0.707107 -0.000000 -0.707107
vn -0.707107 -0.000000 -0.707107
vn -1.000000 0.000000 -0.000000
vn -1.000000 0.000000 -0.000000
vn -1.000000 -0.000000 -0.000000
vn -1.000000 -0.000000 -0.000000
vn 0.000000 0.000000 1.000000
vn 0.000000 0.000000 1.000000
vn 0.000000 0.000000 1.000000
vn 0.000000 0.000000 1.000000
vn 0.000000 0.000000 -1.000000
vn 0.000000 0.000000 -1.000000
vn 0.000000 0.000000 -1.000000
vn 0.000000 0.000000 -1.000000
vn -1.000000 0.000000 0.000000
vn -1.000000 0.000000 0.000000
vn 1.000000 0.000000 0.000000
vn 1.000000 0.000000 0.000000
vn -0.259842 -0.910900 0.320536
vn -0.320419 -0.910568 0.261149
vn -0.165522 -0.972216 0.165522
vn 0.000000 -0.943301 0.331938
vn 0.000000 -0.943301 0.331938
vn 0.000000 -0.943301 0.331938
vn 0.000000 -0.943301 0.331938
vn 0.259842 -0.910900 0.320536
vn 0.165522 -0.972216 0.165522
vn 0.320419 -0.910568 0.261149
vn -0.331938 -0.943301 0.000000
vn -0.331938 -0.943301 0.000000
vn -0.331938 -0.943301 0.000000
vn -0.331938 -0.943301 0.000000
vn -0.165522 -0.972216 -0.165522
vn 0.165522 -0.972216 -0.165522
vn 0.331938 -0.943301 0.000000
vn 0.331938 -0.943301 0.000000
vn 0.331938 -0.943301 0.000000
vn 0.331938 -0.943301 0.000000
vn -0.320419 -0.910568 -0.261149
vn -0.259842 -0.910900 -0.320536
vn 0.000000 -0.943301 -0.331938
vn 0.000000 -0.943301 -0.331938
vn 0.000000 -0.943301 -0.331938
vn 0.000000 -0.943301 -0.331938
vn 0.259842 -0.910900 -0.320536
vn 0.320419 -0.910568 -0.261149
vn -0.000000 -0.943301 0.331938
vn -0.000000 -0.943301 0.331938
vn 0.000000 -0.943301 0.331938
vn 0.000000 -0.943301 0.331938
vn 0.000000 -0.943301 -0.331938
vn -0.000000 -0.943301 -0.331938
vn -0.000000 -0.943301 -0.331938
vn 0.000000 -0.943301 -0.331938
vn -0.331938 -0.943301 -0.000000
vn -0.331938 -0.943301 -0.000000
vn -0.331938 -0.943301 0.000000
vn -0.331938 -0.943301 0.000000
vn 0.331938 -0.943301 -0.000000
vn 0.331938 -0.943301 -0.000000
vn 0.331938 -0.943301 0.000000
vn 0.331938 -0.943301 0.000000
vn -1.000000 0.000000 0.000000
vn -1.000000 0.000000 0.000000
vn -1.000000 0.000000 0.000000
vn -1.000000 0.000000 0.000000
vn 0.000000 0.331938 0.943301
vn 0.000000 0.331938 0.943301
vn 0.000000 0.331938 0.943301
vn 0.000000 0.331938 0.943301
vn 1.000000 0.000000 0.000000
vn 1.000000 0.000000 0.000000
vn 1.000000 -0.000000 -0.000000
vn 1.000000 -0.000000 -0.000000
vn 0.000000 0.000000 -1.000000
vn 0.000000 0.000000 -1.000000
vn 0.000000 0.000000 -1.000000
vn 0.000000 0.000000 -1.000000
vn -0.943301 0.331938 0.000000
vn -0.943301 0.331938 0.000000
vn -0.943301 0.331938 0.000000
vn -0.943301 0.331938 0.000000
vn 0.000000 0.000000 1.000000
vn 0.000000 0.000000 1.000000
vn 0.000000 0.000000 1.000000
vn 0.000000 0.000000 1.000000
vn 0.943301 -0.331938 0.000000
vn 0.943301 -0.331938 0.000000
vn 0.943301 -0.331938 0.000000
vn 0.943301 -0.331938 0.000000
vn 0.000000 0.000000 -1.000000
vn 0.000000 0.000000 -1.000000
vn 0.000000 0.000000 -1.000000
vn 0.000000 0.000000 -1.000000
vn -0.943301 -0.331938 0.000000
vn -0.943301 -0.331938 0.000000
vn -0.943301 -0.331938 0.000000
vn -0.943301 -0.331938 0.000000
vn 0.000000 0.000000 1.000000
vn 0.000000 0.000000 1.000000
vn 0.000000 0.000000 1.000000
vn 0.000000 0.000000 1.000000
vn 0.943301 0.331938 0.000000
vn 0.943301 0.331938 0.000000
vn 0.943301 0.331938 0.000000
vn 0.943301 0.331938 0.000000
vn 0.000000 0.331938 -0.943301
vn 0.000000 0.331938 -0.943301
vn 0.000000 0.331938 -0.943301
vn 0.000000 0.331938 -0.943301
vn -1.000000 0.000000 0.000000
vn -1.000000 0.000000 0.000000
vn -1.000000 -0.000000 0.000000
vn -1.000000 -0.000000 0.000000
vn 1.000000 0.000000 0.000000
vn 1.000000 0.000000 0.000000
vn 1.000000 0.000000 0.000000
vn 1.000000 0.000000 0.000000
vn 0.707107 0.000000 0.707107
vn 0.707107 0.000000 0.707107
vn 0.000000 0.000000 -1.000000
vn 0.000000 0.000000 -1.000000
vn -0.707107 0.000000 0.707107
vn -0.707107 0.000000 0.707107
vn 0.000000 0.000000 1.000000
vn 0.000000 0.000000 1.000000
vn -0.000000 0.000000 -1.000000
vn -0.000000 0.000000 -1.000000
vn 0.000000 0.000000 1.000000
vn 0.000000 0.000000 1.000000
vn 0.707107 0.000000 -0.707107
vn 0.707107 0.000000 -0.707107
vn 1.000000 0.000000 0.000000
vn 1.000000 0.000000 0.000000
vn -0.707107 0.000000 -0.707107
vn -0.707107 0.000000 -0.707107
vn -1.000000 0.000000 -0.000000
vn -1.000000 0.000000 -0.000000
vn 0.000000 0.000000 1.000000
vn 0.000000 0.000000 1.000000
vn 0.000000 0.000000 -1.000000
vn 0.000000 0.000000 -1.000000
# 280 normals

usemtl lambert1
s 1
f 1/1/1 4/2/2 3/3/3
f 2/8/8 6/9/9 5/10/10
f 4/2/2 5/10/10 9/15/15 8/16/16
f 7/21/21 8/16/16 11/22/22
f 9/15/15 10/27/27 12/28/28
f 2/8/8 5/10/10 15/29/29 13/30/30
f 5/10/10 4/2/2 16/31/31 15/29/29
f 4/2/2 1/1/1 14/32/32 16/31/31
f 8/16/16 9/15/15 18/33/33 17/34/34
f 9/15/15 12/28/28 19/35/35 18/33/33
f 11/22/22 8/16/16 17/34/34 20/36/36
f 3/3/3 4/2/2 22/37/37 21/38/38
f 4/2/2 8/16/16 23/39/39 22/37/37
f 8/16/16 7/21/21 24/40/40 23/39/39
f 7/21/21 3/3/3 21/38/38 24/40/40
f 5/10/10 6/9/9 26/41/41 25/42/42
f 6/9/9 10/27/27 27/43/43 26/41/41
f 10/27/27 9/15/15 28/44/44 27/43/43
f 9/15/15 5/10/10 25/42/42 28/44/44
s 2
f 30/4/4 29/5/5 31/6/6 32/7/7
s 3
f 33/11/11 34/12/12 35/13/13 36/14/14
s 4
f 37/17/17 38/18/18 39/19/19 40/20/20
s 5
f 41/23/23 42/24/24 43/25/25 44/26/26
s 6
f 13/45/45 15/46/46 31/6/47 29/5/48
f 55/93/153 59/101/154 13/102/45 29/94/48
f 73/151/201 89/113/202 91/112/203 75/152/204
f 55/200/153 89/199/202 73/208/201 59/207/154
s 7
f 15/47/49 16/48/50 32/7/51 31/6/52
s 8
f 16/49/53 14/50/54 30/4/55 32/7/56
f 14/86/54 51/85/121 54/91/122 30/92/55
f 76/155/209 92/111/210 90/110/211 74/156/212
f 74/191/212 90/197/211 54/198/122 51/192/121
s 9
f 21/51/57 22/52/58 34/12/59 33/11/60
s 10
f 22/53/61 23/54/62 35/13/63 34/12/64
s 11
f 23/55/65 24/56/66 36/14/67 35/13/68
s 12
f 24/57/69 21/58/70 33/11/71 36/14/72
s 13
f 25/59/73 26/60/74 38/18/75 37/17/76
s 14
f 26/61/77 27/62/78 39/19/79 38/18/80
s 15
f 27/63/81 28/64/82 40/20/83 39/19/84
s 16
f 28/65/85 25/66/86 37/17/87 40/20/88
s 17
f 17/67/89 18/68/90 42/24/91 41/23/92
s 18
f 18/69/93 19/70/94 43/25/95 42/24/96
f 19/90/94 53/89/123 47/79/124 43/78/95
f 78/175/249 102/132/250 103/131/251 79/176/252
f 79/194/252 103/186/251 47/185/124 53/195/123
s 19
f 20/71/97 17/72/98 41/23/99 44/26/100
f 48/105/155 60/103/156 20/104/97 44/106/100
f 80/177/253 104/130/254 101/129/255 77/178/256
f 48/211/155 104/212/254 80/210/253 60/209/156
s 20
f 2/73/101 45/74/102 46/75/103 6/76/104
f 62/179/257 66/180/258 46/181/103 45/182/102
s 21
f 44/77/105 43/78/106 47/79/107 48/80/108
f 104/183/259 48/184/108 47/185/107 103/186/260
s 22
f 1/81/109 3/82/110 49/83/111 50/84/112
f 61/187/261 50/188/112 49/189/111 63/190/262
s 23
f 1/81/113 50/84/114 51/85/115 14/86/116
f 61/187/263 74/191/264 51/192/115 50/188/114
s 24
f 12/87/117 52/88/118 53/89/119 19/90/120
f 72/193/265 79/194/266 53/195/119 52/196/118
s 25
f 54/91/125 55/93/126 29/94/127 30/92/128
f 54/198/125 90/197/267 89/199/268 55/200/126
s 26
f 56/95/129 52/88/130 12/87/131 10/96/132
f 56/201/129 70/202/269 72/193/270 52/196/130
s 27
f 46/75/133 56/95/134 10/96/135 6/76/136
f 46/181/133 66/180/271 70/202/272 56/201/134
s 28
f 58/97/137 57/98/138 7/99/139 11/100/140
f 58/203/137 71/204/273 67/205/274 57/206/138
s 29
f 57/98/141 49/83/142 3/82/143 7/99/144
f 57/206/141 67/205/275 63/190/276 49/189/142
s 30
f 59/101/145 45/74/146 2/73/147 13/102/148
f 59/207/145 73/208/277 62/179/278 45/182/146
s 31
f 60/103/149 58/97/150 11/100/151 20/104/152
f 60/209/149 80/210/279 71/204/280 58/203/150
s 32
f 61/107/157 63/108/158 64/109/159
f 62/114/164 73/135/185 75/136/186 65/115/165
f 65/115/165 75/136/186 76/137/187 64/109/159
f 64/109/159 76/137/187 74/138/188 61/107/157
f 63/108/158 81/143/193 82/144/194 64/109/159
f 64/109/159 82/144/194 83/145/195 68/121/171
f 68/121/171 83/145/195 84/146/196 67/127/177
f 67/127/177 84/146/196 81/143/193 63/108/158
s 33
f 90/110/160 92/111/161 91/112/162 89/113/163
s 34
f 62/114/164 65/115/165 66/116/166
f 65/115/165 85/147/197 86/148/198 66/116/166
f 66/116/166 86/148/198 87/149/199 70/134/184
f 70/134/184 87/149/199 88/150/200 69/122/172
f 69/122/172 88/150/200 85/147/197 65/115/165
s 35
f 93/117/167 96/118/168 95/119/169 94/120/170
s 36
f 64/109/159 68/121/171 69/122/172 65/115/165
f 67/127/177 71/128/178 68/121/171
f 69/122/172 72/133/183 70/134/184
f 68/121/171 77/139/189 78/140/190 69/122/172
f 69/122/172 78/140/190 79/141/191 72/133/183
f 71/128/178 80/142/192 77/139/189 68/121/171
s 37
f 97/123/173 100/124/174 99/125/175 98/126/176
s 38
f 101/129/179 104/130/180 103/131/181 102/132/182
s 39
f 75/153/205 91/112/206 92/111/207 76/154/208
s 40
f 81/157/213 93/117/214 94/120/215 82/158/216
s 41
f 82/159/217 94/120/218 95/119/219 83/160/220
s 42
f 83/161/221 95/119/222 96/118/223 84/162/224
s 43
f 84/163/225 96/118/226 93/117/227 81/164/228
s 44
f 85/165/229 97/123/230 98/126/231 86/166/232
s 45
f 86/167/233 98/126/234 99/125/235 87/168/236
s 46
f 87/169/237 99/125/238 100/124/239 88/170/240
s 47
f 88/171/241 100/124/242 97/123/243 85/172/244
s 48
f 77/173/245 101/129/246 102/132/247 78/174/248

# 106 faces
